# xmcd
#
# Track frame offsets:
#	150
#	16703
#	38130
#	47147
#	65438
#	87009
#	107795
#	125640
#	146569
#	160018
#	182132
#	208746
#
# Disc length: 3247 seconds
#
# Revision: 0
# Processed by: cddbd v1.5.2PL0 Copyright (c) Steve Scherf et al.
# Submitted via: EZCDAudioConverter 1.3.3.1
#
DISCID=a00cad0c
DTITLE=Hobo - Farkashajsza
DYEAR=2012
DGENRE=Acoustic
TTITLE0=a - Farkashajsza
TTITLE1=b - A sorsról
TTITLE2=c - Dal a szentimentalis bokszolóról
TTITLE3=d - Dal a barátról
TTITLE4=e - A költőkhöz
TTITLE5=f - Kegyetlen, vad kormányzóság
TTITLE6=g - Ballada a két sebzett hattyúról
TTITLE7=h - Csak a ''nem'' es csak a ''sem''
TTITLE8=i - Ne irj több verset
TTITLE9=j - Fekete szemek
TTITLE10=k - Az én cigánydalom
TTITLE11=l;Az én Hamletem
EXTD=
EXTT0=
EXTT1=
EXTT2=
EXTT3=
EXTT4=
EXTT5=
EXTT6=
EXTT7=
EXTT8=
EXTT9=
EXTT10=
EXTT11=
PLAYORDER=
